<svg width="24" height="24" viewBox="0 0 24 24" fill="none" xmlns="http://www.w3.org/2000/svg">
<path d="M1.33333 0H22.6667C23.0203 0 23.3594 0.140476 23.6095 0.390524C23.8595 0.640573 24 0.979711 24 1.33333V22.6667C24 23.0203 23.8595 23.3594 23.6095 23.6095C23.3594 23.8595 23.0203 24 22.6667 24H1.33333C0.979711 24 0.640573 23.8595 0.390524 23.6095C0.140476 23.3594 0 23.0203 0 22.6667V1.33333C0 0.979711 0.140476 0.640573 0.390524 0.390524C0.640573 0.140476 0.979711 0 1.33333 0ZM19.0667 17.2533C18.9333 17.1867 18.8667 16.9867 18.8667 16.852V6.67467C18.8667 6.54133 18.9333 6.34133 19.0667 6.20667L20.34 4.73333V4.66667H15.7867L12.3733 13.304L8.488 4.66667H3.80267V4.73333L5.00667 6.408C5.27467 6.67467 5.34133 7.07733 5.34133 7.412V14.776C5.408 15.1787 5.34133 15.6467 5.14133 16.048L3.33333 18.5253V18.592H8.15467V18.5253L6.34667 16.116C6.14667 15.7133 6.07867 15.312 6.14667 14.844V8.14667C6.21333 8.28 6.28 8.28 6.34667 8.548L10.8987 18.7253H10.9653L15.3867 7.68C15.32 8.08 15.32 8.54933 15.32 8.88533V16.7853C15.32 16.9853 15.2533 17.1187 15.12 17.2533L13.78 18.5253V18.592H20.3413V18.5253L19.0693 17.2533H19.0667Z" fill="#222222"/>
</svg>
