<svg width="227" height="117" viewBox="0 0 227 117" fill="none" xmlns="http://www.w3.org/2000/svg">
<path fill-rule="evenodd" clip-rule="evenodd" d="M222.957 60.0497C221.79 65.9666 220.32 72.3086 219.392 78.7289C219.067 80.9735 219.516 83.1758 216.928 84.1777C216.396 84.3832 215.614 84.7182 215.263 84.4899C209.308 80.6168 202.275 79.7506 195.86 77.1901C191.564 75.475 187.656 73.0366 185.291 68.774C184.819 67.9231 184.995 66.6943 184.873 65.6403C185.893 65.5469 187.01 65.1288 187.915 65.4118C194.494 67.4709 201.052 69.6053 207.567 71.8643C209.611 72.5729 210.083 71.7872 210.541 69.9338C211.597 65.6572 212.985 61.4663 214.091 57.2013C214.564 55.3785 214.676 53.4596 214.933 51.5817C214.954 51.4248 214.733 51.217 214.776 51.0834C215.22 49.7033 215.635 47.2069 216.174 47.1744C217.729 47.0789 219.588 47.6156 220.877 48.5516C224.859 51.4442 223.054 55.7241 222.957 60.0497Z" fill="#FF4A4A"/>
<path fill-rule="evenodd" clip-rule="evenodd" d="M135.806 27.4481C135.727 27.1828 135.645 26.9163 135.565 26.651L127.918 29.8464C128.038 30.1444 128.159 30.4416 128.279 30.7386C130.787 29.6421 133.298 28.5447 135.806 27.4481ZM78.9622 26.4633C78.8824 26.2616 78.8025 26.0599 78.7227 25.8582C74.539 27.1346 70.3552 28.412 66.1705 29.6892C66.2607 29.9941 66.3519 30.299 66.4422 30.6029C70.6155 29.2234 74.7889 27.8429 78.9622 26.4633ZM114.567 54.518C114.788 57.5876 114.95 60.6637 115.25 63.7258C115.434 65.6171 116.547 66.2348 118.444 66.0332C124.387 65.3991 129.259 60.683 130.467 54.5128C131.785 47.7873 128.384 43.1702 124.022 38.9851C123.681 38.6573 122.244 38.999 121.701 39.4786C117.231 43.4318 115.479 48.7005 114.567 54.518ZM98.2765 29.11C82.398 26.7543 68.3099 31.3976 55.1638 40.2023C40.1979 50.2258 28.0164 63.1511 17.0253 77.3579C13.6966 81.6604 10.4753 86.0516 7.04682 90.2692C6.12786 91.4016 4.70883 92.5014 3.36274 92.7593C2.43387 92.9375 1.23591 91.643 0.158543 91.005C0.583436 90.3658 0.980241 89.7023 1.43987 89.0902C2.67964 87.4414 4.09062 85.9056 5.17518 84.1607C8.70679 78.4826 12.0279 72.6699 15.6158 67.0304C18.0342 63.2292 20.6243 59.5188 23.4081 55.9875C25.1666 53.7574 27.5318 52.0301 29.434 49.9018C32.4494 46.5296 35.0179 42.6916 38.298 39.6275C43.4026 34.8566 48.6012 30.0346 54.3738 26.1871C67.1348 17.6817 81.1349 14.3906 96.4185 17.0748C103.531 18.3235 110.613 19.2792 117.069 22.8496C117.775 23.2402 119.213 22.9067 120.001 22.4059C127.935 17.3537 136.646 15.2066 145.857 15.6483C152.749 15.9781 159.824 16.2081 166.413 18.0023C171.94 19.5065 177.136 22.8123 182.007 26.0506C186.336 28.9308 190.246 32.5809 193.935 36.3064C199.189 41.6146 202.619 48.1714 204.565 55.427C204.844 56.4687 203.966 58.2406 203.081 59.0951C202.098 60.0456 200.909 59.4043 199.563 58.6011C195.349 56.0862 194.019 51.6725 192.009 47.7616C188.202 40.3511 182.08 35.5449 174.797 32.5386C162.371 27.4085 149.425 27.5411 136.523 30.7133C129.554 32.4284 129.589 32.7149 133.923 38.1438C139.628 45.2883 142.327 53.3587 140.805 62.5509C139.038 73.2202 129.421 79.7872 118.94 77.8208C115.65 77.2028 113.621 74.8879 111.688 72.5222C107.297 67.1476 105.215 60.8187 105.015 53.8798C104.808 46.7018 105.405 39.669 109.455 33.3933C110.432 31.8778 109.742 31.0912 108.083 30.8266C104.806 30.303 101.544 29.6872 98.2765 29.11Z" fill="#FF4A4A"/>
</svg>
