<svg width="228" height="117" viewBox="0 0 228 117" fill="none" xmlns="http://www.w3.org/2000/svg">
<path fill-rule="evenodd" clip-rule="evenodd" d="M223.786 56.5184C222.62 50.6015 221.149 44.2596 220.222 37.8392C219.897 35.5946 220.345 33.3923 217.757 32.3904C217.225 32.1849 216.444 31.8499 216.092 32.0782C210.137 35.9513 203.104 36.8176 196.689 39.378C192.393 41.0931 188.486 43.5315 186.12 47.7941C185.649 48.6451 185.825 49.8739 185.703 50.9278C186.722 51.0212 187.84 51.4393 188.744 51.1563C195.323 49.0973 201.882 46.9628 208.397 44.7038C210.441 43.9952 210.913 44.7809 211.37 46.6344C212.427 50.9109 213.814 55.1018 214.92 59.3669C215.394 61.1897 215.506 63.1086 215.763 64.9864C215.784 65.1433 215.563 65.3511 215.606 65.4847C216.05 66.8648 216.464 69.3612 217.003 69.3938C218.558 69.4893 220.418 68.9525 221.706 68.0165C225.688 65.1239 223.884 60.8441 223.786 56.5184Z" fill="#F3C140"/>
<path fill-rule="evenodd" clip-rule="evenodd" d="M136.636 89.12C136.556 89.3853 136.475 89.6518 136.395 89.9171L128.748 86.7217C128.868 86.4237 128.988 86.1265 129.108 85.8295C131.617 86.926 134.127 88.0234 136.636 89.12ZM79.7918 90.1048C79.712 90.3065 79.6321 90.5082 79.5523 90.7099C75.3686 89.4335 71.1848 88.1562 67.0001 86.8789C67.0903 86.574 67.1815 86.2691 67.2718 85.9652C71.4451 87.3447 75.6185 88.7252 79.7918 90.1048ZM115.397 62.0501C115.618 58.9805 115.78 55.9044 116.079 52.8423C116.264 50.951 117.376 50.3333 119.274 50.5349C125.217 51.169 130.089 55.8851 131.297 62.0553C132.614 68.7808 129.213 73.3979 124.851 77.583C124.51 77.9108 123.074 77.5691 122.53 77.0895C118.06 73.1363 116.309 67.8676 115.397 62.0501ZM99.1061 87.4581C83.2276 89.8138 69.1395 85.1705 55.9933 76.3658C41.0275 66.3423 28.846 53.417 17.8549 39.2102C14.5262 34.9077 11.3049 30.5165 7.87641 26.2989C6.95745 25.1665 5.53842 24.0667 4.19233 23.8088C3.26346 23.6306 2.0655 24.9251 0.988132 25.5631C1.41303 26.2023 1.80983 26.8658 2.26946 27.4779C3.50923 29.1267 4.92021 30.6625 6.00477 32.4074C9.53638 38.0855 12.8575 43.8982 16.4454 49.5377C18.8638 53.3389 21.4539 57.0493 24.2376 60.5806C25.9962 62.8107 28.3614 64.538 30.2636 66.6663C33.279 70.0385 35.8475 73.8765 39.1276 76.9406C44.2321 81.7115 49.4308 86.5335 55.2034 90.381C67.9644 98.8864 81.9645 102.178 97.2481 99.4933C104.36 98.2446 111.443 97.2889 117.899 93.7185C118.604 93.3279 120.042 93.6614 120.83 94.1622C128.765 99.2145 137.475 101.362 146.686 100.92C153.579 100.59 160.654 100.36 167.242 98.5658C172.769 97.0616 177.965 93.7558 182.836 90.5175C187.166 87.6373 191.076 83.9872 194.765 80.2617C200.019 74.9535 203.449 68.3967 205.394 61.1411C205.674 60.0994 204.796 58.3275 203.911 57.473C202.928 56.5225 201.738 57.1638 200.392 57.967C196.179 60.4819 194.849 64.8956 192.838 68.8065C189.032 76.217 182.91 81.0232 175.627 84.0295C163.201 89.1596 150.255 89.027 137.353 85.8548C130.383 84.1397 130.418 83.8532 134.753 78.4243C140.458 71.2798 143.156 63.2094 141.634 54.0172C139.867 43.3479 130.251 36.7809 119.769 38.7473C116.479 39.3653 114.45 41.6802 112.517 44.0459C108.127 49.4205 106.044 55.7494 105.845 62.6883C105.637 69.8663 106.235 76.8991 110.284 83.1748C111.262 84.6903 110.572 85.4769 108.912 85.7415C105.635 86.2651 102.374 86.8809 99.1061 87.4581Z" fill="#F3C140"/>
</svg>
